<svg width="32" height="32" viewBox="0 0 32 32" fill="none" xmlns="http://www.w3.org/2000/svg">
  <rect width="32" height="32" rx="8" fill="#050816"/>
  <defs>
    <linearGradient id="shield" x1="16" y1="3" x2="16" y2="28" gradientUnits="userSpaceOnUse">
      <stop stop-color="#4DA2FF"/>
      <stop offset="0.55" stop-color="#5B8CFF"/>
      <stop offset="1" stop-color="#FF6B35"/>
    </linearGradient>
    <linearGradient id="drop" x1="16" y1="9" x2="16" y2="23" gradientUnits="userSpaceOnUse">
      <stop stop-color="#050816"/>
      <stop offset="0.72" stop-color="#0B1228"/>
      <stop offset="1" stop-color="#FF6B35"/>
    </linearGradient>
    <radialGradient id="core" cx="0" cy="0" r="1" gradientUnits="userSpaceOnUse" gradientTransform="translate(16 20.5) scale(5)">
      <stop stop-color="#FFB088" stop-opacity="0.95"/>
      <stop offset="0.45" stop-color="#FF6B35" stop-opacity="0.55"/>
      <stop offset="1" stop-color="#FF6B35" stop-opacity="0"/>
    </radialGradient>
  </defs>
  <path d="M16 2.75L27.25 6.75V14.75C27.25 21.35 22.15 26.15 16 28.75C9.85 26.15 4.75 21.35 4.75 14.75V6.75L16 2.75Z" fill="url(#shield)"/>
  <path d="M16 5.25L24.75 8.5V14.75C24.75 19.85 20.85 23.65 16 25.65C11.15 23.65 7.25 19.85 7.25 14.75V8.5L16 5.25Z" stroke="white" stroke-opacity="0.14" stroke-width="0.75"/>
  <ellipse cx="16" cy="20.25" rx="3.75" ry="2.25" fill="url(#core)"/>
  <path d="M16 8.75C13.05 8.75 10.75 11.15 10.75 14.25C10.75 18.1 16 23.25 16 23.25C16 23.25 21.25 18.1 21.25 14.25C21.25 11.15 18.95 8.75 16 8.75Z" fill="url(#drop)"/>
  <path d="M9.25 8C12.1 6.2 15.15 5.45 16 5.45C16.85 5.45 19.9 6.2 22.75 8" stroke="white" stroke-opacity="0.42" stroke-width="1" stroke-linecap="round"/>
</svg>